<svg id="Layer_1" data-name="Layer 1" xmlns="http://www.w3.org/2000/svg" viewBox="0 0 115 26"><defs><style>.cls-1{fill:#fff;}</style></defs><title>handytec official black</title><path class="cls-1" d="M18.46,2.33A.2.2,0,0,0,18.4,2,11.79,11.79,0,0,0,1.88,12.08a.19.19,0,0,0,.2.21H8.4a.24.24,0,0,0,.14,0Z"/><path class="cls-1" d="M14.65,11.94a.2.2,0,0,0,.14.35H25.25a.21.21,0,0,0,.2-.21,11.85,11.85,0,0,0-.91-4,13,13,0,0,0-2.27-3.45.21.21,0,0,0-.29,0Z"/><path class="cls-1" d="M24.56,16.85H2.7a.19.19,0,0,0-.19.26,11.83,11.83,0,0,0,15.75,7,12,12,0,0,0,6.48-6.95.2.2,0,0,0-.18-.27"/><path class="cls-1" d="M109.91,6.72V4.21H111a1.7,1.7,0,0,1,.59.07.52.52,0,0,1,.29.24.74.74,0,0,1,.11.39.67.67,0,0,1-.16.47.84.84,0,0,1-.5.23,1.59,1.59,0,0,1,.27.21,3.59,3.59,0,0,1,.29.41l.31.49h-.61l-.37-.54a2.72,2.72,0,0,0-.27-.37.27.27,0,0,0-.15-.11.77.77,0,0,0-.25,0h-.11v1Zm.5-1.45h.38a1.94,1.94,0,0,0,.45,0,.33.33,0,0,0,.15-.11.35.35,0,0,0,0-.18.28.28,0,0,0-.07-.21.35.35,0,0,0-.19-.1h-.77Z"/><path class="cls-1" d="M113.12,5.56a2.22,2.22,0,1,1-2.22-2.22A2.21,2.21,0,0,1,113.12,5.56ZM110.9,7.44A1.88,1.88,0,1,0,109,5.56a1.88,1.88,0,0,0,1.88,1.88Z"/><path class="cls-1" d="M29.84,4.86h2.32V9.39a5.16,5.16,0,0,1,1.37-.89,3.51,3.51,0,0,1,1.4-.29,3.18,3.18,0,0,1,2.34.95,3.37,3.37,0,0,1,.81,2.44v6.14h-2.3V13.67a10.31,10.31,0,0,0-.15-2.19,1.59,1.59,0,0,0-.53-.86,1.52,1.52,0,0,0-.92-.28,1.72,1.72,0,0,0-1.21.47,2.51,2.51,0,0,0-.71,1.28,10.61,10.61,0,0,0-.1,1.92v3.73H29.84Z"/><path class="cls-1" d="M47.2,8.45h2.33v9.29H47.2v-1a5,5,0,0,1-1.37.94,3.87,3.87,0,0,1-1.49.28,4.13,4.13,0,0,1-3.12-1.4,4.88,4.88,0,0,1-1.31-3.47,5,5,0,0,1,1.27-3.53,4.08,4.08,0,0,1,3.09-1.37,3.93,3.93,0,0,1,1.57.31,4.36,4.36,0,0,1,1.36,1Zm-2.46,1.91a2.33,2.33,0,0,0-1.79.76,2.76,2.76,0,0,0-.72,2,2.77,2.77,0,0,0,.73,2,2.36,2.36,0,0,0,1.79.78,2.42,2.42,0,0,0,1.83-.77,2.8,2.8,0,0,0,.72-2,2.73,2.73,0,0,0-.72-2,2.47,2.47,0,0,0-1.84-.75"/><path class="cls-1" d="M51.89,8.45h2.33v1a5.39,5.39,0,0,1,1.44-.93A3.38,3.38,0,0,1,57,8.21a3.18,3.18,0,0,1,2.34,1,3.33,3.33,0,0,1,.81,2.43v6.14h-2.3V13.67a10.27,10.27,0,0,0-.15-2.21,1.57,1.57,0,0,0-.52-.83,1.49,1.49,0,0,0-.92-.29,1.68,1.68,0,0,0-1.21.48,2.48,2.48,0,0,0-.71,1.31,10.44,10.44,0,0,0-.1,1.88v3.73H51.89Z"/><path class="cls-1" d="M69.25,4.86h2.33V17.74H69.25v-1a4.87,4.87,0,0,1-1.37.94,3.84,3.84,0,0,1-1.49.28,4.09,4.09,0,0,1-3.11-1.4A4.84,4.84,0,0,1,62,13.11a5,5,0,0,1,1.27-3.53,4.08,4.08,0,0,1,3.09-1.37,3.93,3.93,0,0,1,1.57.31,4.36,4.36,0,0,1,1.36,1Zm-2.45,5.5a2.36,2.36,0,0,0-1.8.76,2.76,2.76,0,0,0-.71,2,2.81,2.81,0,0,0,.72,2,2.5,2.5,0,0,0,3.62,0,2.8,2.8,0,0,0,.72-2,2.73,2.73,0,0,0-.72-2,2.43,2.43,0,0,0-1.83-.75"/><polygon class="cls-1" points="72.91 8.45 75.29 8.45 77.71 14.28 80.37 8.45 82.76 8.45 76.94 21.14 74.53 21.14 76.44 17.05 72.91 8.45"/><polygon class="cls-1" points="84.37 5.02 86.71 5.02 86.71 8.45 88.09 8.45 88.09 10.45 86.71 10.45 86.71 17.74 84.37 17.74 84.37 10.45 83.18 10.45 83.18 8.45 84.37 8.45 84.37 5.02"/><path class="cls-1" d="M98.65,13.77H91.16A2.52,2.52,0,0,0,92,15.35a2.69,2.69,0,0,0,1.79.58A3.1,3.1,0,0,0,96.07,15l2,.92a4.67,4.67,0,0,1-1.76,1.54,5.59,5.59,0,0,1-2.44.5,4.81,4.81,0,0,1-3.56-1.38,4.68,4.68,0,0,1-1.38-3.45,4.89,4.89,0,0,1,1.37-3.54,4.64,4.64,0,0,1,3.44-1.4,4.78,4.78,0,0,1,3.57,1.4,5.08,5.08,0,0,1,1.38,3.71Zm-2.33-1.84a2.35,2.35,0,0,0-.91-1.26,2.62,2.62,0,0,0-1.58-.49,2.76,2.76,0,0,0-1.71.55,3,3,0,0,0-.86,1.2Z"/><path class="cls-1" d="M109.64,10.33l-1.94,1.06a3.44,3.44,0,0,0-1.08-.79,3.26,3.26,0,0,0-1.26-.22,2.89,2.89,0,0,0-2.11.78,2.64,2.64,0,0,0-.81,2,2.55,2.55,0,0,0,.78,1.93,2.77,2.77,0,0,0,2,.76,3,3,0,0,0,2.44-1.07L109.54,16a5.67,5.67,0,0,1-8.06.49,4.9,4.9,0,0,1-.72-5.89,4.7,4.7,0,0,1,1.89-1.78,5.92,5.92,0,0,1,5.19-.1,4.78,4.78,0,0,1,1.8,1.57"/></svg>